<svg width="143" height="46" viewBox="0 0 143 46" fill="none" xmlns="http://www.w3.org/2000/svg">
  <path d="M8.12259 39.9698C6.64608 39.9698 5.3793 39.7684 4.32225 39.3658C3.28198 38.9631 2.49339 38.4262 1.95647 37.755C1.43634 37.0839 1.17627 36.3372 1.17627 35.5151C1.17627 35.3809 1.19305 35.1795 1.22661 34.9111C1.26016 34.76 1.32728 34.6342 1.42795 34.5335C1.5454 34.4329 1.67963 34.3825 1.83063 34.3825H5.05211C5.25346 34.3825 5.40446 34.4161 5.50514 34.4832C5.62259 34.5503 5.74004 34.6678 5.85749 34.8356C5.97494 35.2718 6.24339 35.6325 6.66286 35.9178C7.0991 36.203 7.69474 36.3456 8.44977 36.3456C9.40615 36.3456 10.178 36.1946 10.7652 35.8926C11.3525 35.5906 11.7048 35.1795 11.8223 34.6594C11.839 34.5923 11.8474 34.4916 11.8474 34.3574C11.8474 33.9379 11.5874 33.6107 11.0672 33.3758C10.5471 33.1241 9.59071 32.8305 8.19809 32.4949C6.57057 32.1426 5.33735 31.6141 4.49842 30.9094C3.6595 30.1879 3.24003 29.2483 3.24003 28.0906C3.24003 27.6879 3.29037 27.2768 3.39104 26.8573C3.72661 25.2969 4.55715 24.0721 5.88265 23.1828C7.22494 22.2936 8.95313 21.849 11.0672 21.849C12.3424 21.849 13.4749 22.0755 14.4649 22.5285C15.4548 22.9815 16.2182 23.5604 16.7552 24.2651C17.3088 24.953 17.5857 25.6409 17.5857 26.3288C17.5857 26.5302 17.5773 26.6728 17.5605 26.7567C17.527 26.9077 17.4515 27.0335 17.334 27.1342C17.2333 27.2349 17.1075 27.2852 16.9565 27.2852H13.584C13.2149 27.2852 12.9632 27.1426 12.829 26.8573C12.8122 26.4714 12.6109 26.1443 12.2249 25.8758C11.839 25.6073 11.3357 25.4731 10.7149 25.4731C9.97662 25.4731 9.3642 25.6073 8.87762 25.8758C8.40782 26.1443 8.1142 26.5386 7.99675 27.0587C7.97997 27.1426 7.97158 27.2516 7.97158 27.3859C7.97158 27.7886 8.20648 28.1241 8.67628 28.3926C9.16286 28.6443 10.0102 28.9043 11.2182 29.1728C13.0974 29.5419 14.4649 30.0704 15.3206 30.7584C16.1931 31.4463 16.6293 32.3607 16.6293 33.5017C16.6293 33.8876 16.579 34.307 16.4783 34.76C16.1092 36.4715 15.2115 37.7718 13.7854 38.6611C12.376 39.5335 10.4884 39.9698 8.12259 39.9698Z" fill="#252C54"/>
  <path d="M23.8105 39.7181C20.74 39.7181 19.2048 38.5604 19.2048 36.245C19.2048 35.7416 19.2635 35.2466 19.381 34.76L20.4128 29.9278H18.4497C18.2652 29.9278 18.1226 29.8691 18.0219 29.7517C17.938 29.6174 17.9128 29.4664 17.9464 29.2986L18.3742 27.26C18.4078 27.0755 18.5001 26.9245 18.6511 26.807C18.8021 26.6896 18.9615 26.6308 19.1293 26.6308H21.1175L21.9984 22.4781C22.032 22.2936 22.1242 22.1426 22.2753 22.0251C22.4263 21.9077 22.5857 21.849 22.7534 21.849H25.6729C25.8575 21.849 26.0001 21.9077 26.1008 22.0251C26.1679 22.1258 26.2014 22.2265 26.2014 22.3271C26.2014 22.3775 26.193 22.4278 26.1763 22.4781L25.2954 26.6308H28.4414C28.6259 26.6308 28.7686 26.6896 28.8692 26.807C28.9363 26.8909 28.9699 26.9916 28.9699 27.109C28.9699 27.1594 28.9615 27.2097 28.9447 27.26L28.5169 29.2986C28.4833 29.4832 28.391 29.6342 28.24 29.7517C28.089 29.8691 27.9296 29.9278 27.7618 29.9278H24.5907L23.6343 34.4077C23.5672 34.6929 23.5336 34.9866 23.5336 35.2886C23.5336 35.6241 23.6175 35.8758 23.7853 36.0436C23.9531 36.1946 24.2383 36.2701 24.641 36.2701H26.6293C26.8139 36.2701 26.9481 36.3288 27.032 36.4463C27.0991 36.5302 27.1326 36.6309 27.1326 36.7483C27.1326 36.7986 27.1243 36.849 27.1075 36.8993L26.6545 39.0889C26.6209 39.2735 26.5286 39.4245 26.3776 39.5419C26.2266 39.6594 26.0672 39.7181 25.8994 39.7181H23.8105Z" fill="#252C54"/>
  <path d="M29.2753 44.5C29.1411 44.5 29.032 44.4581 28.9482 44.3742C28.8643 44.307 28.8223 44.2064 28.8223 44.0721C28.8223 43.9547 28.8643 43.8289 28.9482 43.6946L32.0186 38.8624L29.5774 27.3607C29.5438 27.1594 29.5857 26.9916 29.7032 26.8573C29.8206 26.7063 30.0052 26.6308 30.2569 26.6308H32.9247C33.277 26.6308 33.4868 26.807 33.5539 27.1594L34.9633 34.4832L39.569 27.1594C39.7535 26.807 40.0388 26.6308 40.4247 26.6308H43.4197C43.5539 26.6308 43.6629 26.6728 43.7468 26.7567C43.8475 26.8406 43.8978 26.9412 43.8978 27.0587C43.8978 27.1929 43.8643 27.302 43.7972 27.3859L33.1008 43.9715C32.9163 44.3238 32.6227 44.5 32.22 44.5H29.2753Z" fill="#252C54"/>
  <path d="M43.0104 39.7181C42.8258 39.7181 42.6832 39.6594 42.5825 39.5419C42.4818 39.4245 42.4483 39.2735 42.4818 39.0889L46.0305 22.4781C46.0641 22.2936 46.148 22.1426 46.2822 22.0251C46.4332 21.9077 46.601 21.849 46.7856 21.849H49.7554C49.9399 21.849 50.0825 21.9077 50.1832 22.0251C50.2503 22.1258 50.2839 22.2265 50.2839 22.3271C50.2839 22.3775 50.2755 22.4278 50.2587 22.4781L46.7352 39.0889C46.7017 39.2735 46.6094 39.4245 46.4584 39.5419C46.3074 39.6594 46.148 39.7181 45.9802 39.7181H43.0104Z" fill="#252C54"/>
  <path d="M55.2251 39.9698C53.4969 39.9698 52.163 39.5755 51.2234 38.7869C50.3006 37.9815 49.8392 36.807 49.8392 35.2634C49.8392 34.8439 49.8979 34.2819 50.0154 33.5772C50.1328 33.0235 50.1999 32.7298 50.2167 32.6963C50.7033 30.7164 51.6429 29.1728 53.0355 28.0654C54.4449 26.9412 56.1312 26.3792 58.0942 26.3792C59.8728 26.3792 61.2067 26.8238 62.0959 27.7131C63.002 28.5855 63.455 29.7684 63.455 31.2617C63.455 31.8154 63.3879 32.4278 63.2537 33.099L63.1278 33.703C63.0775 33.8876 62.9768 34.0386 62.8258 34.156C62.6748 34.2735 62.5154 34.3322 62.3476 34.3322H54.2939L54.2436 34.5084C54.1932 34.7768 54.1681 35.0369 54.1681 35.2886C54.1681 35.859 54.3023 36.3121 54.5708 36.6476C54.856 36.9832 55.2671 37.151 55.804 37.151C56.2234 37.151 56.5842 37.0671 56.8862 36.8993C57.1882 36.7148 57.4818 36.4966 57.7671 36.245C57.9349 36.0772 58.0691 35.9681 58.1698 35.9178C58.2872 35.8674 58.4466 35.8423 58.6479 35.8423H61.7688C61.9365 35.8423 62.0624 35.8926 62.1463 35.9933C62.1966 36.0604 62.2218 36.1359 62.2218 36.2198C62.2218 36.2701 62.2134 36.3288 62.1966 36.396C62.0792 36.8322 61.71 37.3356 61.0892 37.906C60.4852 38.4597 59.6714 38.9463 58.6479 39.3658C57.6244 39.7684 56.4835 39.9698 55.2251 39.9698ZM59.0758 31.8406L59.101 31.7902C59.1681 31.3876 59.2016 31.1023 59.2016 30.9345C59.2016 30.3641 59.059 29.9194 58.7738 29.6006C58.4885 29.2819 58.0691 29.1225 57.5154 29.1225C56.8442 29.1225 56.2738 29.3657 55.804 29.8523C55.3342 30.3221 55.0154 30.9681 54.8476 31.7902L54.8224 31.8406H59.0758Z" fill="#252C54"/>
  <path d="M68.1367 39.9698C66.7105 39.9698 65.6031 39.5839 64.8145 38.8121C64.0427 38.0235 63.6568 36.9161 63.6568 35.4899C63.6568 35.0872 63.6988 34.609 63.7827 34.0553C63.9001 33.4513 64.0343 32.8557 64.1853 32.2684C64.6551 30.4396 65.4353 29.005 66.526 27.9647C67.6166 26.9077 68.9756 26.3792 70.6031 26.3792C71.4253 26.3792 72.1384 26.5134 72.7424 26.7818C73.3464 27.0503 73.8162 27.411 74.1518 27.8641L75.3095 22.4781C75.3431 22.2936 75.427 22.1426 75.5612 22.0251C75.7122 21.9077 75.8716 21.849 76.0394 21.849H79.1099C79.2944 21.849 79.437 21.9077 79.5377 22.0251C79.6216 22.109 79.6636 22.2181 79.6636 22.3523C79.6636 22.3859 79.6552 22.4278 79.6384 22.4781L76.0897 39.0889C76.0562 39.2735 75.9639 39.4245 75.8129 39.5419C75.6786 39.6594 75.5193 39.7181 75.3347 39.7181H72.5159C72.3313 39.7181 72.1887 39.6594 72.088 39.5419C71.9874 39.4245 71.9538 39.2735 71.9874 39.0889L72.1635 38.2835C71.5763 38.8372 70.9807 39.2567 70.3766 39.5419C69.7726 39.8272 69.026 39.9698 68.1367 39.9698ZM69.8733 36.5973C70.6451 36.5973 71.2827 36.354 71.786 35.8674C72.2894 35.3809 72.6417 34.7684 72.8431 34.0302C73.0109 33.3758 73.1451 32.7466 73.2458 32.1426C73.2793 31.8741 73.2961 31.6812 73.2961 31.5637C73.2961 31.0268 73.1451 30.5906 72.8431 30.255C72.5578 29.9194 72.0964 29.7517 71.4588 29.7517C70.0998 29.7517 69.1434 30.6325 68.5897 32.3943C68.4219 32.9647 68.3129 33.4849 68.2625 33.9547C68.2122 34.2567 68.187 34.5419 68.187 34.8104C68.187 35.3809 68.3129 35.8255 68.5645 36.1443C68.833 36.4463 69.2692 36.5973 69.8733 36.5973Z" fill="#252C54"/>
  <path d="M86.0225 39.7181C85.6031 39.7181 85.3766 39.5084 85.343 39.0889L84.1601 27.3607C84.1433 27.1594 84.2021 26.9916 84.3363 26.8573C84.4873 26.7063 84.6635 26.6308 84.8648 26.6308H87.3564C87.7591 26.6308 87.9772 26.807 88.0108 27.1594L88.6148 34.3574L92.39 27.1845C92.4571 27.0503 92.5662 26.9245 92.7172 26.807C92.8682 26.6896 93.0527 26.6308 93.2709 26.6308H94.9571C95.1752 26.6308 95.3346 26.6896 95.4353 26.807C95.536 26.9077 95.5947 27.0335 95.6115 27.1845L96.3665 34.3574L100.016 27.1594C100.083 27.0251 100.184 26.9077 100.318 26.807C100.469 26.6896 100.645 26.6308 100.846 26.6308H103.665C103.95 26.6308 104.093 26.7651 104.093 27.0335C104.093 27.1342 104.068 27.2516 104.018 27.3859L97.9269 39.0889C97.7256 39.5084 97.4152 39.7181 96.9957 39.7181H94.7054C94.286 39.7181 94.0427 39.5084 93.9756 39.0889L92.9689 32.1929L89.2189 39.0889C88.984 39.5084 88.6568 39.7181 88.2373 39.7181H86.0225Z" fill="#252C54"/>
  <path d="M106.662 24.7433C106.477 24.7433 106.335 24.6845 106.234 24.5671C106.15 24.4496 106.117 24.2986 106.133 24.1141L106.637 21.849C106.67 21.6644 106.762 21.5134 106.913 21.3959C107.064 21.2785 107.224 21.2198 107.392 21.2198H110.412C110.596 21.2198 110.739 21.2785 110.84 21.3959C110.907 21.4966 110.94 21.5973 110.94 21.6979C110.94 21.7483 110.932 21.7986 110.915 21.849L110.437 24.1141C110.403 24.2986 110.311 24.4496 110.16 24.5671C110.026 24.6845 109.867 24.7433 109.682 24.7433H106.662ZM103.516 39.7181C103.331 39.7181 103.189 39.6594 103.088 39.5419C102.987 39.4245 102.954 39.2735 102.987 39.0889L105.504 27.26C105.538 27.0755 105.63 26.9245 105.781 26.807C105.932 26.6896 106.1 26.6308 106.284 26.6308H109.254C109.422 26.6308 109.556 26.6896 109.657 26.807C109.724 26.8909 109.757 26.9916 109.757 27.109C109.757 27.1594 109.749 27.2097 109.732 27.26L107.241 39.0889C107.207 39.2735 107.115 39.4245 106.964 39.5419C106.813 39.6594 106.653 39.7181 106.486 39.7181H103.516Z" fill="#252C54"/>
  <path d="M110.018 39.7181C109.834 39.7181 109.691 39.6594 109.59 39.5419C109.49 39.4245 109.456 39.2735 109.49 39.0889L112.006 27.26C112.04 27.0755 112.132 26.9245 112.283 26.807C112.434 26.6896 112.602 26.6308 112.787 26.6308H115.681C115.865 26.6308 116.008 26.6896 116.109 26.807C116.176 26.8909 116.209 26.9916 116.209 27.109C116.209 27.1594 116.201 27.2097 116.184 27.26L115.983 28.2164C116.537 27.6627 117.183 27.2181 117.921 26.8825C118.659 26.5469 119.464 26.3792 120.337 26.3792C121.662 26.3792 122.694 26.7231 123.433 27.411C124.171 28.0822 124.54 29.0637 124.54 30.3557C124.54 30.8255 124.473 31.3959 124.339 32.0671L122.828 39.0889C122.795 39.2735 122.703 39.4245 122.552 39.5419C122.417 39.6594 122.266 39.7181 122.099 39.7181H118.927C118.743 39.7181 118.6 39.6594 118.5 39.5419C118.399 39.4077 118.365 39.2567 118.399 39.0889L119.859 32.2181C119.943 31.7986 119.985 31.4715 119.985 31.2366C119.985 30.7332 119.85 30.3641 119.582 30.1292C119.313 29.8775 118.886 29.7517 118.298 29.7517C117.543 29.7517 116.906 29.9698 116.386 30.406C115.865 30.8255 115.521 31.4295 115.354 32.2181L113.919 39.0889C113.886 39.2735 113.793 39.4245 113.642 39.5419C113.491 39.6594 113.332 39.7181 113.164 39.7181H110.018Z" fill="#252C54"/>
  <path d="M129.896 39.9698C128.469 39.9698 127.362 39.5839 126.573 38.8121C125.802 38.0235 125.416 36.9161 125.416 35.4899C125.416 35.0872 125.458 34.609 125.542 34.0553C125.659 33.4513 125.793 32.8557 125.944 32.2684C126.414 30.4396 127.194 29.005 128.285 27.9647C129.375 26.9077 130.735 26.3792 132.362 26.3792C133.184 26.3792 133.897 26.5134 134.501 26.7818C135.105 27.0503 135.575 27.411 135.911 27.8641L137.068 22.4781C137.102 22.2936 137.186 22.1426 137.32 22.0251C137.471 21.9077 137.631 21.849 137.798 21.849H140.869C141.053 21.849 141.196 21.9077 141.297 22.0251C141.381 22.109 141.422 22.2181 141.422 22.3523C141.422 22.3859 141.414 22.4278 141.397 22.4781L137.849 39.0889C137.815 39.2735 137.723 39.4245 137.572 39.5419C137.438 39.6594 137.278 39.7181 137.094 39.7181H134.275C134.09 39.7181 133.948 39.6594 133.847 39.5419C133.746 39.4245 133.713 39.2735 133.746 39.0889L133.922 38.2835C133.335 38.8372 132.74 39.2567 132.136 39.5419C131.532 39.8272 130.785 39.9698 129.896 39.9698ZM131.632 36.5973C132.404 36.5973 133.042 36.354 133.545 35.8674C134.048 35.3809 134.401 34.7684 134.602 34.0302C134.77 33.3758 134.904 32.7466 135.005 32.1426C135.038 31.8741 135.055 31.6812 135.055 31.5637C135.055 31.0268 134.904 30.5906 134.602 30.255C134.317 29.9194 133.855 29.7517 133.218 29.7517C131.859 29.7517 130.902 30.6325 130.349 32.3943C130.181 32.9647 130.072 33.4849 130.021 33.9547C129.971 34.2567 129.946 34.5419 129.946 34.8104C129.946 35.3809 130.072 35.8255 130.323 36.1443C130.592 36.4463 131.028 36.5973 131.632 36.5973Z" fill="#252C54"/>
  <path fill-rule="evenodd" clip-rule="evenodd" d="M57.3445 4.23038C57.4382 4.77465 57.073 5.29187 56.5288 5.38561C50.9182 6.352 49.0703 10.422 48.8261 12.1831C48.7502 12.7301 48.2453 13.1121 47.6982 13.0362C47.1512 12.9603 46.7692 12.4554 46.8451 11.9083C47.1859 9.45034 49.5666 4.55536 56.1893 3.41464C56.7335 3.32089 57.2507 3.68611 57.3445 4.23038Z" fill="#FA802D"/>
  <path fill-rule="evenodd" clip-rule="evenodd" d="M71.1469 0.907481C71.6818 1.04502 72.0039 1.59013 71.8664 2.12501C71.1689 4.8373 69.1016 6.01938 67.8947 6.70948C67.7502 6.79213 67.618 6.86773 67.5019 6.93806C67.062 7.20467 66.4052 7.41255 65.7138 7.59504C64.9886 7.78646 64.0969 7.98084 63.1087 8.18672C62.7109 8.2696 62.296 8.35464 61.867 8.44258C60.147 8.79516 58.1995 9.19436 56.2132 9.68729C52.7383 10.5496 51.3498 13.708 51.1057 15.1731C51.0149 15.7179 50.4997 16.086 49.9549 15.9952C49.4102 15.9044 49.0421 15.3892 49.1329 14.8444C49.4495 12.9441 51.1873 8.87386 55.7315 7.74617C57.7619 7.24228 59.7607 6.83264 61.4831 6.47964C61.9069 6.39277 62.314 6.30933 62.7008 6.22876C63.688 6.0231 64.534 5.83795 65.2034 5.66126C65.9067 5.47565 66.3016 5.32686 66.4653 5.22766C66.6147 5.13715 66.7674 5.04785 66.9216 4.95766C68.1406 4.24488 69.4536 3.47711 69.9294 1.62693C70.0669 1.09205 70.612 0.769939 71.1469 0.907481Z" fill="#095FBE"/>
  <path fill-rule="evenodd" clip-rule="evenodd" d="M74.0961 8.87535C74.631 9.01289 74.9531 9.558 74.8156 10.0929C74.0946 12.8968 71.9769 13.9923 70.6201 14.6942C70.4971 14.7579 70.3803 14.8183 70.2713 14.8765C69.8428 15.1054 69.2587 15.282 68.6237 15.4429C67.9686 15.6089 67.162 15.7808 66.2424 15.9758L66.1209 16.0016C64.2877 16.3902 61.9486 16.8861 59.1877 17.6485C55.7 18.6117 54.2945 21.7032 54.0549 23.141C53.9641 23.6858 53.4489 24.0538 52.9042 23.963C52.3594 23.8723 51.9913 23.3571 52.0821 22.8123C52.4033 20.8846 54.1789 16.9569 58.6553 15.7207C61.4751 14.942 63.8639 14.4356 65.6973 14.0469C65.741 14.0377 65.7844 14.0285 65.8275 14.0193C66.7582 13.822 67.5231 13.6586 68.1324 13.5042C68.7618 13.3447 69.1352 13.2159 69.3293 13.1123C69.4419 13.0521 69.5547 12.9928 69.6672 12.9336C71.0468 12.2079 72.3881 11.5024 72.8786 9.5948C73.0161 9.05991 73.5612 8.7378 74.0961 8.87535Z" fill="#095FBE"/>
  <path fill-rule="evenodd" clip-rule="evenodd" d="M71.7089 17.4294C71.9785 17.9114 71.8064 18.5207 71.3244 18.7904C69.3425 19.8993 66.6678 20.5488 64.4544 20.9803C63.6236 21.1423 62.8329 21.2778 62.1545 21.3941C61.9214 21.4341 61.7015 21.4718 61.4978 21.5075C61.0934 21.5784 60.7581 21.6405 60.4959 21.698C60.3653 21.7266 60.2619 21.7522 60.1829 21.7747C60.1029 21.7975 60.0701 21.811 60.0675 21.8121C60.0674 21.8121 60.0674 21.8121 60.0674 21.8121C59.5652 22.042 58.9718 21.8213 58.7419 21.3192C58.512 20.817 58.7327 20.2235 59.2349 19.9936C59.4736 19.8844 59.7848 19.8064 60.0676 19.7444C60.3742 19.6772 60.7451 19.609 61.1524 19.5376C61.3686 19.4996 61.5966 19.4606 61.8351 19.4197C62.5088 19.3042 63.2654 19.1745 64.0716 19.0173C66.2742 18.5879 68.6693 17.9841 70.3479 17.045C70.8299 16.7753 71.4392 16.9475 71.7089 17.4294Z" fill="#FA802D"/>
  <path fill-rule="evenodd" clip-rule="evenodd" d="M73.9067 2.61149C74.436 2.76887 74.7376 3.32561 74.5802 3.855C73.9518 5.96876 73.2552 7.29615 72.557 8.18949C71.9307 8.99089 71.3246 9.40633 70.931 9.67607C70.8803 9.71084 70.8331 9.74319 70.7899 9.77363C70.7724 9.78589 70.7545 9.79854 70.7361 9.81154C70.2961 10.1221 69.5608 10.6411 68.1249 11.1808C66.6524 11.7343 64.4676 12.3016 61.11 12.7313C56.5058 13.3204 54.1642 15.7707 53.6318 16.7728C53.3727 17.2605 52.7672 17.4458 52.2795 17.1867C51.7918 16.9275 51.6065 16.3221 51.8656 15.8344C52.7315 14.2048 55.6716 11.4108 60.8562 10.7474C64.109 10.3312 66.1337 9.79264 67.4212 9.30872C68.6206 8.8579 69.1996 8.44857 69.5792 8.18018C69.5996 8.16575 69.6194 8.15173 69.6387 8.13813C69.6932 8.09975 69.7475 8.06229 69.8017 8.02488C70.1784 7.76501 70.5517 7.50738 70.9812 6.95788C71.4814 6.31791 72.0825 5.23818 72.6631 3.28506C72.8205 2.75567 73.3773 2.4541 73.9067 2.61149Z" fill="#FA802D"/>
</svg>
